HIERARCHY
ROOT Hips
{
	OFFSET -3.958830 18.904000 13.208200
	CHANNELS 6 Xposition Yposition Zposition Zrotation Yrotation Xrotation 
	JOINT LHipJoint
	{
		OFFSET 0.000000 0.000000 0.000000
		CHANNELS 3 Zrotation Yrotation Xrotation
		JOINT LeftUpLeg
		{
			OFFSET 1.800000 -1.400000 0.085000
			CHANNELS 3 Zrotation Yrotation Xrotation
			JOINT LeftLeg
			{
				OFFSET 2.215000 -6.000000 0.000000
				CHANNELS 3 Zrotation Yrotation Xrotation
				JOINT LeftFoot
				{
					OFFSET 2.500000 -6.900000 0.000000
					CHANNELS 3 Zrotation Yrotation Xrotation
					JOINT LeftToeBase
					{
						OFFSET 0.200000 -0.500000 1.950000
						CHANNELS 3 Zrotation Yrotation Xrotation
						End Site
						{
							OFFSET 0.000000 0.000000 0.000000
						}
					}
				}
			}
		}
	}
	JOINT RHipJoint
	{
		OFFSET 0.000000 0.000000 0.000000
		CHANNELS 3 Zrotation Yrotation Xrotation
		JOINT RightUpLeg
		{
			OFFSET -1.800000 -1.400000 0.085000
			CHANNELS 3 Zrotation Yrotation Xrotation
			JOINT RightLeg
			{
				OFFSET -2.215000 -6.000000 0.000000
				CHANNELS 3 Zrotation Yrotation Xrotation
				JOINT RightFoot
				{
					OFFSET -2.500000 -6.900000 0.000000
					CHANNELS 3 Zrotation Yrotation Xrotation
					JOINT RightToeBase
					{
						OFFSET -0.200000 -0.500000 1.950000
						CHANNELS 3 Zrotation Yrotation Xrotation
						End Site
						{
							OFFSET 0.000000 0.000000 0.000000
						}
					}
				}
			}
		}
	}
	JOINT LowerBack
	{
		OFFSET 0.000000 0.000000 0.000000
		CHANNELS 3 Zrotation Yrotation Xrotation
		JOINT Spine
		{
			OFFSET -0.087000 1.940000 -0.288900
			CHANNELS 3 Zrotation Yrotation Xrotation
			JOINT Spine1
			{
				OFFSET 0.000000 1.950000 0.060000
				CHANNELS 3 Zrotation Yrotation Xrotation
				JOINT Neck
				{
					OFFSET 0.000000 0.000000 0.000000
					CHANNELS 3 Zrotation Yrotation Xrotation
					JOINT Neck1
					{
						OFFSET 0.000000 1.600000 0.340000
						CHANNELS 3 Zrotation Yrotation Xrotation
						JOINT Head
						{
							OFFSET 0.000000 1.667000 -0.240000
							CHANNELS 3 Zrotation Yrotation Xrotation
							End Site
							{
								OFFSET 0.000000 0.000000 0.000000
							}
						}
					}
				}
				JOINT LeftShoulder
				{
					OFFSET 0.000000 0.000000 0.000000
					CHANNELS 3 Zrotation Yrotation Xrotation
					JOINT LeftArm
					{
						OFFSET 2.700000 1.550000 -0.730000
						CHANNELS 3 Zrotation Yrotation Xrotation
						JOINT LeftForeArm
						{
							OFFSET 5.450000 0.000000 0.000000
							CHANNELS 3 Zrotation Yrotation Xrotation
							JOINT LeftHand
							{
								OFFSET 3.450000 0.000000 0.000000
								CHANNELS 3 Zrotation Yrotation Xrotation
								JOINT LeftHandIndex1
								{
									OFFSET 0.750000 0.000000 0.000000
									CHANNELS 3 Zrotation Yrotation Xrotation
									End Site
									{
										OFFSET 0.000000 0.000000 0.000000
									}
								}
							}
						}
					}
				}
				JOINT RightShoulder
				{
					OFFSET 0.000000 0.000000 0.000000
					CHANNELS 3 Zrotation Yrotation Xrotation
					JOINT RightArm
					{
						OFFSET -2.700000 1.550000 -0.730000
						CHANNELS 3 Zrotation Yrotation Xrotation
						JOINT RightForeArm
						{
							OFFSET -5.450000 0.000000 0.000000
							CHANNELS 3 Zrotation Yrotation Xrotation
							JOINT RightHand
							{
								OFFSET -3.450000 0.000000 0.000000
								CHANNELS 3 Zrotation Yrotation Xrotation
								JOINT RightHandIndex1
								{
									OFFSET -0.750000 0.000000 0.000000
									CHANNELS 3 Zrotation Yrotation Xrotation
									End Site
									{
										OFFSET 0.000000 0.000000 0.000000
									}
								}
							}
						}
					}
				}
			}
		}
	}
}
MOTION
Frames: 9
Frame Time: 0.016667
17.443060 17.441090 4.713670 5.538987 9.473756 4.999639 -15.321734 13.802741 3.848513 6.673299 -0.663761 -0.698954 -11.941679 5.001130 -1.000010 0.261937 4.774327 3.167320 0.324760 -0.001340 0.217980 17.929582 -10.284346 3.259552 0.840843 2.639572 -20.902495 5.510524 -3.296073 7.960611 -0.041913 -2.253212 3.617769 -0.151520 0.189720 0.515270 -3.086223 -3.273799 -8.873370 14.299614 -8.335683 8.162880 -7.483762 -4.432912 -16.273820 6.115860 1.703553 -14.616389 0.383037 -13.670712 34.919712 -13.430870 -10.126460 0.486320 1.992495 -0.551914 1.416281 -17.333991 -4.094408 -0.212177 10.549040 -5.263255 -0.326992 -4.087315 2.999266 0.266240 0.170200 0.050500 0.264320 -16.425058 5.127313 12.796300 31.945944 -6.597445 -2.814248 -4.373973 -7.078226 0.833950 2.938087 -1.323575 0.123630 -0.194590 -0.131400 0.048000 
17.437540 17.461220 4.708510 4.144097 9.817850 3.487552 -15.335797 13.821310 3.789786 7.597146 -0.574933 0.115354 -11.545243 5.069706 -0.944933 0.400469 4.769942 3.170054 0.429380 0.183990 0.238210 17.960236 -10.190037 3.201080 2.049909 2.513769 -19.656691 5.137215 -3.335742 8.442632 -0.096424 -2.346960 3.611837 -0.089810 0.155240 0.554700 -3.118826 -3.457210 -8.731436 16.840444 -8.619754 8.465123 -8.009011 -4.842909 -11.811832 6.522899 1.406119 -15.087497 0.357269 -14.286452 31.858571 -14.222620 -9.495900 -0.311790 0.840171 -2.448458 2.314132 -17.469782 -3.278690 -0.415454 10.928960 -4.091779 -0.227230 -4.031733 3.130275 0.188480 0.173720 0.118850 0.359160 -16.218529 6.885319 13.484810 31.747244 -7.091322 -2.784351 -4.046489 -6.608485 0.580072 2.970858 -1.433824 0.221510 -0.246630 -0.258210 0.125720 
17.327180 17.577890 4.788620 2.852510 10.245927 3.178507 -15.382635 13.498245 3.743650 6.985916 -0.631429 -0.617214 -11.385077 4.533983 -3.225308 0.280765 4.845495 3.157606 0.307570 0.020390 0.186750 18.024433 -10.039863 3.204248 3.788014 2.551844 -17.622332 3.997087 -2.857111 5.551631 -0.020900 -2.499666 3.529092 -0.100630 0.263010 0.595400 -3.117746 -3.163540 -8.569895 17.963061 -7.619634 7.275047 -7.799574 -4.699352 -5.395706 6.955325 1.336828 -16.023104 1.848427 -16.580172 25.276871 -16.864600 -9.063950 2.240190 2.001598 -5.192794 3.001286 -19.439542 -6.066063 0.186663 12.314681 -2.322179 -0.384472 -4.271812 3.183120 0.092890 0.319840 -0.031820 0.266130 -18.297222 8.930833 14.837609 37.285594 -10.976671 -5.487118 -10.637664 1.967620 -0.000688 2.756601 -1.751886 0.153490 -0.269320 -0.120870 0.076800 
17.108490 17.710960 4.880860 6.111317 3.123440 4.184890 -15.393205 13.383253 3.844344 0.872900 0.002586 -2.094376 -11.920355 4.245751 -3.088918 0.277121 4.257958 3.319943 0.416480 0.160460 0.282910 17.974152 -10.371900 3.192721 2.057856 2.189748 -18.647953 3.792435 -2.804867 5.746251 -0.096541 -2.330349 3.597675 -0.082780 0.143230 0.539270 -2.879454 -2.460087 -8.666962 11.036188 -4.782693 8.684879 -4.799148 -2.311025 -9.451204 6.531959 3.005698 -15.406854 3.582085 -15.128649 30.571888 -14.231440 -9.084400 -0.835720 1.241044 -3.840008 2.477129 -17.413822 -6.127479 0.273763 10.455944 -1.721884 -0.217335 -4.111115 3.080046 0.189160 0.178880 0.105560 0.304970 -15.994936 6.937816 13.932751 32.621956 -9.208129 -3.427489 -6.664502 -4.228584 0.591009 2.921328 -1.488783 0.200090 -0.230750 -0.230440 0.085390 
16.931560 17.843350 5.053850 6.224723 -2.084096 6.334933 -15.329096 13.429777 3.585392 -2.229503 -0.485867 -7.743025 -10.251259 4.631896 2.912137 0.079190 3.646204 3.501486 0.405920 0.150520 0.268330 18.007061 -10.305791 3.575556 1.778601 2.086050 -16.319346 6.415253 -2.296298 -1.996544 -0.144471 -2.647854 3.501335 -0.062870 0.171400 0.530550 -2.906340 -2.447202 -8.759173 11.543152 -3.353214 8.086617 -5.387217 -0.419941 -14.229122 6.970419 2.019325 -14.716770 2.010670 -13.751209 30.852866 -14.349740 -7.811260 1.471630 3.634438 0.235707 0.575955 -19.704767 -7.552897 0.464035 9.177479 -2.413562 -0.204568 -4.142114 3.101449 0.144710 0.219720 0.055210 0.311500 -18.954216 5.224163 13.286443 34.502745 -8.409325 -3.968029 -7.882392 -1.197850 0.326967 2.881907 -1.611356 0.176060 -0.263770 -0.242870 0.085930 
16.765500 17.878350 5.149290 6.901603 -2.316822 5.645411 -15.390686 13.196102 3.500623 -3.327402 -0.642136 -8.422360 -10.585981 4.749834 3.949871 0.064638 3.589266 3.508593 0.454320 0.202980 0.285790 18.001701 -10.288242 3.590222 1.203340 1.729812 -14.707103 6.849076 -2.187726 -4.415972 -0.210474 -2.902962 3.419581 -0.028710 0.166800 0.530800 -2.804619 -2.089954 -8.617964 8.222321 -3.128987 8.183334 -2.436092 -1.069686 -10.686824 6.398446 2.657212 -14.963439 3.505636 -13.433994 29.197545 -13.012090 -7.444370 1.183200 3.114271 -1.532019 1.685513 -20.159349 -5.884065 -0.084673 11.089321 -4.359526 -0.312688 -4.076077 3.213730 0.136650 0.217960 0.051400 0.335360 -17.245616 5.508614 13.464534 31.768977 -8.138008 -3.213456 -7.574101 -2.253851 0.278540 2.892235 -1.651562 0.184630 -0.280940 -0.276970 0.089740 
16.630220 17.952850 5.258220 5.837687 -4.381873 4.861047 -15.314829 13.407138 3.613182 -3.060632 -0.925186 -9.616519 -11.278284 5.030212 5.026246 0.009344 3.683164 3.489243 0.358010 0.064540 0.231820 18.018839 -10.396403 3.499756 2.052848 1.595763 -14.227947 6.231514 -2.635771 -0.639001 -0.161476 -2.757975 3.482679 -0.097290 0.210300 0.486440 -2.895198 -2.380068 -8.689062 10.810411 -3.431188 10.563551 -4.081285 -0.421572 -12.318812 6.024493 2.309019 -15.016089 2.551813 -12.932748 31.057251 -11.636550 -8.329850 0.819290 2.812542 -1.140527 1.572830 -19.301929 -5.017995 -0.264432 10.678395 -4.990870 -0.383176 -4.083184 3.084678 0.211810 0.196750 0.021160 0.291610 -16.367244 5.797386 13.449233 30.633798 -7.941979 -3.211300 -7.365102 -2.569775 0.433514 2.873720 -1.518162 0.112990 -0.204240 -0.185130 0.058960 
16.517970 17.990010 5.336240 4.663801 -6.588180 3.825653 -15.326873 13.484410 3.784415 -2.440284 -1.043386 -9.803780 -12.253283 4.556403 1.663693 0.064727 3.628278 3.522422 0.404940 0.129230 0.262940 18.008659 -10.278300 3.422136 3.187832 1.628447 -14.314955 5.834313 -2.772741 1.646982 -0.147440 -2.641094 3.527389 -0.067940 0.182270 0.442250 -2.830862 -2.818930 -8.787670 12.610828 -3.938674 13.429746 -4.625721 0.021481 -12.922634 6.216128 1.673579 -14.930901 1.294963 -11.652748 32.124381 -10.111570 -8.059300 0.610200 3.060296 -0.466688 1.230562 -20.520592 -5.891376 -0.084261 12.120261 -3.514486 -0.248721 -4.035185 3.101823 0.214460 0.155080 0.039310 0.319770 -16.831117 6.194327 13.334173 30.590122 -6.504857 -2.934163 -8.663880 -3.199989 0.580048 2.946419 -1.554031 0.115680 -0.198060 -0.250660 0.072640 
16.355670 17.984320 5.434770 5.391611 -6.961236 4.476972 -15.358339 13.352562 3.799014 -4.358854 -1.381426 -11.538126 -10.765506 4.023227 0.871667 -0.166191 3.385590 3.642104 0.410590 0.108420 0.297210 18.007306 -10.271750 3.395594 3.052698 1.864404 -15.936849 4.960892 -2.508521 1.091618 -0.105849 -2.493538 3.590106 -0.011560 0.241740 0.384650 -2.780539 -2.633847 -8.705361 10.519850 -4.281451 14.092703 -3.519998 -0.606892 -13.846589 6.079868 2.114905 -13.723395 2.500607 -11.331092 29.684631 -9.269960 -7.340490 -1.832020 3.286342 1.533390 0.543332 -21.493232 -4.316047 -0.781732 15.002617 -9.117122 -0.677091 -3.981156 3.051904 0.300470 0.173150 0.002040 0.317420 -16.917778 3.577496 12.106584 29.769762 -4.192573 -2.525076 -9.068889 -1.997320 0.376334 2.831925 -1.522677 -0.012690 -0.076050 -0.227640 0.011590 
